<svg version="1.1" id="Layer_1" xmlns="http://www.w3.org/2000/svg" xmlns:xlink="http://www.w3.org/1999/xlink" x="0px" y="0px" viewBox="0 0 548.86 125.1" style="enable-background:new 0 0 548.86 125.1;" xml:space="preserve">
<style type="text/css">
	.st0{fill:#0071CE;}
	.st1{fill:#E1251B;}
	.st2{fill:#A7A9AC;}
</style>
<g>
	<g>
		<polygon class="st0" points="544.15,0 541.34,5.82 541.01,0 527.93,0 527.27,3.07 529.86,3.07 528.44,9.77 531.79,9.77 
			533.21,3.07 535.62,3.07 534.19,9.77 537.4,9.77 538.57,4.19 538.98,9.77 541.99,9.77 544.74,4.19 543.57,9.77 546.78,9.77 
			548.86,0 		"></polygon>
		<path class="st0" d="M535.89,61.09h-31.64l10.29-48.35l2.71-12.73h-29.51l-7.69,36.14c0.03-0.85,0.05-1.7,0.05-2.57
			c0-10.38-3.42-18.58-10.26-24.59c-6.2-5.45-14.95-8.43-26.26-8.94C442.41,0,441.22,0.01,440,0.01c-1.15,0-3.38,0-3.38,0h-67.09
			c-0.51,0-1.01-0.02-1.53-0.02c-0.25,0-0.48,0.02-0.72,0.02h-0.97l-0.01,0.03c-11.88,0.24-21.27,2.94-28.11,8.16
			c-6.28,4.79-9.81,11.25-10.59,19.4c-0.11,1.16-0.1,1.71-0.05,2.94c0.35,7.92,4.46,14.05,17.15,19.26c0,0,9.45,4,10.6,4.46
			s2.62,1.58,2.62,3.51c0,1.46-0.74,2.45-2.21,3c-0.92,0.34-2.13,0.33-2.13,0.33h-35.15l-5.32,24.98h32
			c0.8,0.03,1.62,0.05,2.49,0.05c1.33,0,2.6-0.02,3.85-0.05h0.97l0.02-0.03c15.03-0.5,23.47-3.45,30-8.91
			c5.46-4.57,7.76-8.77,8.72-13.77c1.61,5.39,4.53,9.95,8.76,13.67c6.84,6.02,16.79,9.02,29.84,9.02c15.57,0,27.85-4.83,36.86-14.51
			c3.68-3.95,6.59-8.41,8.76-13.35l-5.93,27.87h29.51l0,0h31.62L535.89,61.09z M448.64,44.11c-0.51,2.6-1.31,5.05-2.45,7.92
			c-1.14,2.87-2.91,5.25-5.31,7.14S435.63,62,432.33,62c-3.54,0-6.43-1.1-8.67-3.3c-2.24-2.2-3.36-5.23-3.36-9.08
			c0-2.28,0.26-4.72,0.77-7.31s1.32-5.35,2.42-8.26c0.02-0.06,0.06-0.12,0.08-0.18h-31.35c-1.33,4.46-2.14,9.27-2.44,14.42
			c-1.86-3.07-4.98-5.99-9.22-8.04c-1.33-0.64-19.77-8.05-20.67-8.4c-0.9-0.35-1.52-0.71-1.85-1.1c-0.33-0.38-0.49-0.88-0.49-1.5
			c0-1.16,0.67-2.2,2.03-2.7c0.49-0.18,1.12-0.3,1.89-0.38c0.41-0.04,1.65-0.1,2.21-0.1c8.21,0,72.58,0.01,72.97,0.02
			c3.69,0.09,6.77,1.15,9.09,3.31s3.48,5.25,3.48,9.26C449.22,40.93,449.15,41.51,448.64,44.11z"></path>
		<path class="st1" d="M313.1,86.07l5.32-24.98h-58.86l1.95-9.16h49.81l3.84-18.06h-49.81l1.66-7.8h60.8
			c1.06-7.43,4.5-13.4,10.38-17.88c6.84-5.22,16.23-7.92,28.11-8.16L366.31,0H262.25l0,0h-19.2l-7.21,33.86h-23.85L219.2,0h-29.51
			l-7.88,37.03c0.16-2.02,0.26-4.07,0.26-6.17c0-9.51-3.22-17.03-9.65-22.56S156.29,0,143.34,0H94.25l1.78,26.06h34.94l6.61-0.02
			c8.17,0,12.29,3.78,12.62,11.1c0.01,0.31-0.03,2.12-0.06,2.45c-0.24,3.06-0.9,5.95-1.99,8.68c-1.4,3.48-3.73,6.48-7.01,8.97
			c-3.28,2.5-7.25,3.75-11.93,3.75h-5.65l5.76-27.13H99.88l-8.87,41.66L85.94,0h-43.4L0,86.06h29.14l7.49-16.07h24.98l0.73,16.07
			h62.21c8.61,0,16.29-1.09,23.05-3.26c6.76-2.17,12.27-5.04,16.54-8.61c4.26-3.57,7.76-7.79,10.51-12.66
			c1.4-2.49,2.59-5.01,3.56-7.53l-6.82,32.06h29.51l7.27-34.14h23.85l-7.27,34.14h29.51l0,0h58.88l0,0h-0.04V86.07z M45.03,51.94
			l14.34-30.79l1.4,30.79H45.03z"></path>
	</g>
	<g>
		<path class="st2" d="M70.01,124.77c0.05-0.97,0.17-2.28,0.36-3.65h-0.1c-1.66,2.98-3.82,4.02-5.9,4.02
			c-2.92,0-4.79-2.28-4.73-5.56c0.1-5.56,4.09-11.49,11.7-11.49c1.78,0,3.68,0.33,4.91,0.74l-1.82,8.51
			c-0.51,2.41-0.83,5.5-0.8,7.44h-3.62V124.77z M71.82,111.26c-0.37-0.1-0.9-0.17-1.57-0.17c-3.62,0-6.47,4.05-6.54,7.77
			c-0.03,1.71,0.58,3.12,2.29,3.12c1.81,0,4.06-2.28,4.9-6.43L71.82,111.26z"></path>
		<path class="st2" d="M105.51,100.98l-3.73,17.96c-0.4,1.91-0.74,4.05-0.84,5.83h-3.59l0.38-2.88h-0.07
			c-1.51,2.21-3.54,3.25-5.65,3.25c-2.92,0-4.92-2.35-4.85-6.03c0.1-5.76,4.38-11.02,10.38-11.02c0.8,0,1.81,0.17,2.5,0.47
			l1.57-7.57L105.51,100.98L105.51,100.98z M99.42,111.73c-0.46-0.37-1.3-0.64-2.23-0.64c-3.35,0-5.9,3.72-5.96,7.37
			c-0.03,1.98,0.71,3.52,2.55,3.52c1.74,0,3.85-1.91,4.58-5.29L99.42,111.73z"></path>
		<path class="st2" d="M114.37,124.77l4.94-23.79h3.89l-2.08,9.92h0.07c1.4-1.71,3.23-2.82,5.51-2.82c2.25,0,4.06,1.37,4.01,4.39
			c-0.01,0.84-0.17,1.98-0.35,2.85l-1.94,9.45h-3.89l1.9-9.15c0.11-0.64,0.22-1.34,0.24-2.14c0.02-1.24-0.53-2.21-2.01-2.21
			c-1.88,0-4.1,2.28-4.79,5.73l-1.61,7.78h-3.89V124.77z"></path>
		<path class="st2" d="M154.99,123.8c-1.62,0.84-3.81,1.31-5.79,1.31c-4.53,0-6.62-2.78-6.55-6.74c0.09-4.92,3.8-10.29,9.4-10.29
			c3.22,0,5.23,1.84,5.18,4.59c-0.07,4.19-4.49,5.53-10.78,5.39c-0.04,0.57,0.07,1.64,0.39,2.31c0.62,1.11,1.78,1.64,3.32,1.64
			c1.84,0,3.33-0.47,4.51-1.07L154.99,123.8z M153.54,112.67c0.02-1.04-0.81-1.68-2.05-1.68c-2.41,0-4.09,2.18-4.6,4.15
			c4.02,0.03,6.61-0.5,6.65-2.45V112.67z"></path>
		<path class="st2" d="M168.07,121.12c0.83,0.47,2.43,1.07,3.9,1.07c1.57,0,2.53-0.9,2.55-2.01c0.02-1.01-0.51-1.68-2.1-2.51
			c-1.86-0.97-3.18-2.38-3.14-4.22c0.05-3.15,2.84-5.36,6.7-5.36c1.71,0,3.11,0.4,3.84,0.84l-1.05,2.82
			c-0.6-0.34-1.7-0.74-3.04-0.74c-1.47,0-2.49,0.77-2.51,1.88c-0.02,0.9,0.71,1.54,2.07,2.28c1.79,0.94,3.34,2.31,3.31,4.36
			c-0.06,3.62-3.11,5.63-7.03,5.6c-1.91-0.03-3.68-0.57-4.54-1.21L168.07,121.12z"></path>
		<path class="st2" d="M190.28,124.77l3.4-16.32h3.89l-3.37,16.32H190.28z M196.31,106.11c-1.17,0-1.96-0.84-1.94-2.08
			c0.02-1.37,1.11-2.35,2.39-2.35c1.24,0,2.06,0.84,2.04,2.08c-0.06,1.44-1.15,2.35-2.45,2.35H196.31z"></path>
		<path class="st2" d="M213.25,108.45l0.9,8.11c0.17,1.94,0.31,3.18,0.4,4.26h0.1c0.42-1.04,0.91-2.21,1.85-4.16l4.2-8.21h4.32
			l-9.37,16.32h-3.92l-2.5-16.32H213.25z"></path>
		<path class="st2" d="M246.19,123.8c-1.62,0.84-3.81,1.31-5.79,1.31c-4.53,0-6.62-2.78-6.55-6.74c0.09-4.92,3.8-10.29,9.4-10.29
			c3.22,0,5.23,1.84,5.18,4.59c-0.07,4.19-4.49,5.53-10.78,5.39c-0.04,0.57,0.07,1.64,0.39,2.31c0.62,1.11,1.78,1.64,3.32,1.64
			c1.84,0,3.33-0.47,4.51-1.07L246.19,123.8z M244.74,112.67c0.02-1.04-0.81-1.68-2.05-1.68c-2.41,0-4.09,2.18-4.6,4.15
			c4.02,0.03,6.61-0.5,6.65-2.45V112.67z"></path>
		<path class="st2" d="M274.78,121.12c0.83,0.47,2.43,1.07,3.9,1.07c1.57,0,2.53-0.9,2.55-2.01c0.02-1.01-0.51-1.68-2.1-2.51
			c-1.86-0.97-3.18-2.38-3.14-4.22c0.05-3.15,2.84-5.36,6.7-5.36c1.71,0,3.11,0.4,3.84,0.84l-1.05,2.82
			c-0.6-0.34-1.7-0.74-3.04-0.74c-1.47,0-2.49,0.77-2.51,1.88c-0.02,0.9,0.71,1.54,2.07,2.28c1.8,0.94,3.35,2.31,3.31,4.36
			c-0.06,3.62-3.11,5.63-7.03,5.6c-1.91-0.03-3.68-0.57-4.54-1.21L274.78,121.12z"></path>
		<path class="st2" d="M304.06,125.14c-4.12,0-6.62-2.85-6.55-6.74c0.1-5.53,4.04-10.32,9.6-10.32c4.39,0,6.61,3.15,6.55,6.74
			c-0.1,5.56-4.03,10.32-9.56,10.32H304.06z M304.65,122.12c2.92,0,4.93-4.02,4.99-7.27c0.03-1.68-0.71-3.75-3.05-3.75
			c-3.12,0-5,4.15-5.05,7.2c-0.04,2.25,1.11,3.82,3.08,3.82L304.65,122.12L304.65,122.12z"></path>
		<path class="st2" d="M324.57,124.77l4.94-23.79h3.92l-4.97,23.79H324.57z"></path>
		<path class="st2" d="M359.47,108.45l-2.34,11.26c-0.4,1.94-0.67,3.65-0.89,5.06h-3.48l0.42-2.85h-0.07
			c-1.61,2.11-3.68,3.22-5.72,3.22c-2.38,0-4.23-1.27-4.18-4.62c0.02-0.87,0.13-1.81,0.39-2.92l1.9-9.15h3.89l-1.83,8.91
			c-0.18,0.8-0.29,1.61-0.31,2.25c-0.02,1.34,0.49,2.31,2.04,2.31c1.81,0,3.92-2.14,4.65-5.53l1.61-7.94H359.47z"></path>
		<path class="st2" d="M390.47,124.77l3.4-16.32h3.89l-3.37,16.32H390.47z M396.49,106.11c-1.17,0-1.96-0.84-1.94-2.08
			c0.02-1.37,1.11-2.35,2.39-2.35c1.24,0,2.06,0.84,2.04,2.08c-0.06,1.44-1.14,2.35-2.45,2.35H396.49z"></path>
		<path class="st2" d="M415.26,125.14c-4.12,0-6.62-2.85-6.55-6.74c0.1-5.53,4.04-10.32,9.6-10.32c4.39,0,6.61,3.15,6.55,6.74
			c-0.1,5.56-4.03,10.32-9.56,10.32H415.26z M415.85,122.12c2.92,0,4.93-4.02,4.98-7.27c0.03-1.68-0.71-3.75-3.05-3.75
			c-3.12,0-5,4.15-5.05,7.2c-0.04,2.25,1.11,3.82,3.08,3.82L415.85,122.12L415.85,122.12z"></path>
		<path class="st2" d="M435.76,124.77l2.31-11.26c0.43-1.94,0.7-3.65,0.93-5.06h3.49l-0.42,2.92h0.07c1.55-2.18,3.64-3.28,5.92-3.28
			c2.35,0,4.13,1.41,4.08,4.49c-0.01,0.74-0.17,1.88-0.35,2.68l-1.94,9.52h-3.92l1.9-9.21c0.11-0.6,0.22-1.31,0.23-1.94
			c0.02-1.37-0.46-2.35-2-2.35c-1.74,0-4.06,2.14-4.83,5.96l-1.54,7.54L435.76,124.77L435.76,124.77z"></path>
		<path class="st2" d="M464.04,121.12c0.83,0.47,2.43,1.07,3.9,1.07c1.57,0,2.53-0.9,2.55-2.01c0.02-1.01-0.51-1.68-2.1-2.51
			c-1.86-0.97-3.18-2.38-3.15-4.22c0.05-3.15,2.84-5.36,6.7-5.36c1.71,0,3.11,0.4,3.84,0.84l-1.05,2.82
			c-0.6-0.34-1.7-0.74-3.04-0.74c-1.47,0-2.49,0.77-2.51,1.88c-0.02,0.9,0.71,1.54,2.07,2.28c1.79,0.94,3.34,2.31,3.31,4.36
			c-0.06,3.62-3.11,5.63-7.04,5.6c-1.91-0.03-3.68-0.57-4.54-1.21L464.04,121.12z"></path>
		<path class="st2" d="M375.9,117.01h0.01l1.16-5.55h3.65l0.66-3.02h-3.65l0.53-2.63l1.01-4.84h-3.85l-1.55,7.47h-2.18l-0.62,3.02
			h2.17l-0.3,1.45l-1.23,5.82c-0.26,1.21-0.37,2.11-0.39,3.02c-0.03,1.88,1.11,3.35,3.79,3.35c0.94,0,1.98-0.1,2.55-0.33l0.42-3.05
			c-0.4,0.07-0.87,0.1-1.34,0.1c-1.04,0-1.43-0.57-1.42-1.47c0.01-0.67,0.16-1.54,0.34-2.28L375.9,117.01z"></path>
	</g>
</g>
</svg>