<svg xmlns="http://www.w3.org/2000/svg" viewBox="0 0 196.86 26.54"><path d="M26.32 25.93h-7.85l-1.24-3.59H9.09l-1.24 3.59H0L9.34.64H17zM14.17 12.58a33.51 33.51 0 01-1-3.84c-.43 1.74-.57 2.31-1.07 3.87 0 0-.53 1.74-1.39 4.3h4.76c-.41-1.46-1.3-4.33-1.3-4.33zM51.12.64v25.29h-7.71V7.14h-4.65v1.49c0 7.18.18 17.76-8.81 17.76a8 8 0 01-3.09-.57v-6a3.11 3.11 0 001.53.39c2.63 0 2.74-4.58 2.74-8.7V.64zm16.67 25.9c-7.79 0-12.69-5.83-12.69-13.33S60.25 0 67.93 0C74.11 0 79 4.3 79.4 10h-7.53a3.93 3.93 0 00-4.08-3.55c-3.66 0-4.87 3.66-4.87 6.79 0 4.19 1.85 6.78 4.87 6.78 2.27 0 3.69-1.42 4.08-4h7.64c-.51 6.93-5.58 10.52-11.72 10.52zm38.83-.61h-7.86l-1.24-3.59h-8.13l-1.24 3.59h-7.86L89.64.64h7.67zM94.47 12.58a33.51 33.51 0 01-1-3.84c-.43 1.74-.57 2.31-1.07 3.87 0 0-.53 1.74-1.39 4.3h4.76c-.42-1.46-1.3-4.33-1.3-4.33zm48.6 13.35h-7.74V7.14H128v18.79h-7.78V.64h22.84zm24.87-18.79h-7.1v18.79h-7.74V7.14H146V.64h21.92zm18.29 3.34l10.62 15.45h-9.7L181 16.09l-2.27 2.38v7.46h-7.64V.64h7.67v5.12c0 2.42 0 1.67-.11 3.87l7.21-9h9.59z" fill="#da3f15"/></svg>