<svg width="33" height="30" viewBox="0 0 33 30" fill="none" xmlns="http://www.w3.org/2000/svg">
<path d="M16.409 2.5C9.06997 2.5 3.12695 8.1 3.12695 15C3.12695 21.9 9.06997 27.5 16.409 27.5C23.7613 27.5 29.7176 21.9 29.7176 15C29.7176 8.1 23.7613 2.5 16.409 2.5ZM16.4223 25C10.5457 25 5.78602 20.525 5.78602 15C5.78602 9.475 10.5457 5 16.4223 5C22.2988 5 27.0586 9.475 27.0586 15C27.0586 20.525 22.2988 25 16.4223 25Z" fill="#0074BC"/>
<path d="M17.0871 8.75H15.0928V16.25L22.0728 20.1875L23.07 18.65L17.0871 15.3125V8.75Z" fill="#0074BC"/>
</svg>
