<svg width="30" height="30" viewBox="0 0 30 30" fill="none" xmlns="http://www.w3.org/2000/svg">
<g clip-path="url(#clip0_407_277)">
<path d="M9.83012 19.5144C10.1953 19.1931 10.2311 18.6367 9.91025 18.2712L9.86177 18.2156C9.70773 18.0406 9.49021 17.9343 9.25752 17.9204C9.23814 17.9204 9.21869 17.9204 9.1989 17.9204C8.98523 17.9201 8.77885 17.9979 8.61865 18.1393L7.43794 19.1758L6.36267 20.1196C5.99857 20.4413 5.96295 20.9967 6.28295 21.3623L6.33226 21.4187C6.6538 21.7837 7.2101 21.8196 7.5758 21.4989L8.40231 20.7736L9.83012 19.5144Z" fill="#0074BC"/>
<path d="M6.99575 21.9237C6.97127 21.9237 6.94726 21.9237 6.92278 21.9216C6.63379 21.9038 6.36399 21.771 6.17344 21.5531L6.12365 21.4962C5.72785 21.0432 5.77212 20.3555 6.22275 19.957L8.47962 17.9751C8.69744 17.7845 8.98181 17.6878 9.27069 17.706C9.55969 17.7239 9.82949 17.8566 10.02 18.0746L10.0892 18.1551C10.4665 18.6093 10.4138 19.2813 9.97031 19.6711L7.71427 21.653C7.51596 21.8281 7.26033 21.9244 6.99575 21.9237ZM9.19862 18.1286C9.03599 18.1294 8.87922 18.1894 8.75754 18.2973L6.5015 20.2792C6.22477 20.5241 6.19786 20.9465 6.44122 21.2246L6.49101 21.2815C6.73567 21.5586 7.1585 21.5856 7.43642 21.3418L9.69204 19.3598C9.96954 19.1155 9.99669 18.6926 9.75279 18.4148L9.70348 18.3579C9.58672 18.2244 9.42136 18.1432 9.24426 18.1324L9.19862 18.1286Z" fill="#0074BC"/>
<path d="M12.9972 21.7173C12.7835 21.717 12.577 21.7946 12.4165 21.9357L11.2522 22.9579C10.8863 23.2789 10.85 23.8358 11.171 24.2016C11.4921 24.5675 12.0489 24.6038 12.4148 24.2828L13.5791 23.2607C13.945 22.94 13.9816 22.3835 13.6609 22.0176C13.4934 21.8264 13.2514 21.7169 12.9972 21.7173Z" fill="#0074BC"/>
<path d="M11.8339 24.7119C11.2309 24.713 10.7413 24.225 10.7402 23.6221C10.7397 23.307 10.8754 23.0069 11.1124 22.7992L12.2771 21.777C12.7363 21.3969 13.4124 21.4408 13.8183 21.8774C14.2163 22.3308 14.1714 23.021 13.718 23.419L12.5537 24.4412C12.3547 24.6162 12.0988 24.7125 11.8339 24.7119ZM12.9969 21.9289C12.8341 21.9276 12.6765 21.9858 12.5537 22.0925L11.3889 23.1146C11.1105 23.3592 11.0831 23.7831 11.3276 24.0615C11.5721 24.34 11.9961 24.3674 12.2745 24.1229L13.4392 23.1019C13.7175 22.858 13.7454 22.4347 13.5015 22.1564C13.374 22.011 13.1899 21.9277 12.9965 21.928L12.9969 21.9289Z" fill="#0074BC"/>
<path d="M2.60856 5.55908L0.241211 15.887L2.13375 16.9505L7.03121 8.98404L2.60856 5.55908Z" fill="#0074BC"/>
<path d="M2.20667 17.2335L0 15.9937L2.47569 5.19019L7.30908 8.93265L2.20667 17.2335ZM0.481566 15.7804L2.05992 16.6659L6.75242 9.03341L2.73968 5.92809L0.481566 15.7804Z" fill="#0074BC"/>
<path d="M7.09177 18.3151C7.45752 17.9938 7.49374 17.437 7.17273 17.0711L7.15756 17.0538C7.00387 16.8778 6.78611 16.7706 6.55289 16.7561C6.53351 16.7561 6.51407 16.7561 6.49427 16.7561C6.2806 16.7557 6.07423 16.8336 5.91402 16.975L4.50008 18.2131C4.13433 18.5343 4.09812 19.0912 4.41912 19.457C4.73378 19.8314 5.2924 19.8798 5.66681 19.5651C5.67066 19.5618 5.67451 19.5586 5.67831 19.5552L5.78541 19.4612L6.86156 18.5166L7.09177 18.3151Z" fill="#0074BC"/>
<path d="M5.1065 19.984C5.07953 19.984 5.05209 19.984 5.0243 19.981C4.72972 19.9583 4.45602 19.8203 4.26274 19.5969C3.86474 19.1436 3.90949 18.4536 4.36267 18.0556L5.77489 16.8163C6.22812 16.4188 6.91761 16.4636 7.31572 16.9162C7.51617 17.1364 7.61871 17.4283 7.59992 17.7254C7.58208 18.0146 7.4492 18.2846 7.23096 18.4752L5.81916 19.7145C5.62256 19.8885 5.36901 19.9844 5.1065 19.984ZM6.49424 16.9664C6.33161 16.9671 6.17472 17.0271 6.05316 17.1351L4.64094 18.3744C4.36261 18.6187 4.33505 19.0423 4.5793 19.3206L4.57936 19.3207C4.69979 19.4609 4.87073 19.5479 5.055 19.5627C5.23215 19.5766 5.40736 19.5178 5.54036 19.4L6.95216 18.1607C7.23025 17.9162 7.25781 17.4927 7.01374 17.2144C6.89532 17.0715 6.72362 16.9833 6.53852 16.9703L6.49424 16.9664Z" fill="#0074BC"/>
<path d="M12.0168 20.7824C12.0327 20.549 11.9545 20.3189 11.7996 20.1435L11.787 20.1291C11.6332 19.9543 11.4159 19.8481 11.1836 19.834C11.1642 19.834 11.1443 19.834 11.1249 19.834C10.9113 19.8336 10.7049 19.9115 10.5447 20.0529L10.4063 20.1743L8.97765 21.4284L8.59815 21.7598C8.23168 22.0914 8.20347 22.6573 8.53503 23.0237C8.68972 23.1947 8.90451 23.2994 9.13454 23.3158C9.368 23.3321 9.59821 23.2538 9.77341 23.0987L11.7186 21.3913C11.8957 21.2365 12.0032 21.0171 12.0168 20.7824Z" fill="#0074BC"/>
<path d="M9.19334 23.5262C9.16928 23.5262 9.14569 23.5262 9.12169 23.524C8.51429 23.4864 8.0524 22.9636 8.09004 22.3562C8.10805 22.0648 8.241 21.7925 8.45964 21.599L10.4032 19.8895C10.6214 19.6994 10.9055 19.6028 11.1943 19.6205C11.4829 19.6381 11.7524 19.7705 11.9428 19.9882C12.1428 20.2079 12.2451 20.4996 12.2262 20.7961C12.2079 21.0845 12.0754 21.3537 11.858 21.5442L9.91282 23.2516C9.71456 23.4281 9.45863 23.5257 9.19334 23.5262ZM10.5427 20.3293L8.7375 21.914C8.45905 22.1582 8.43078 22.5816 8.67426 22.8607C8.79274 23.0016 8.96332 23.0885 9.14699 23.1015C9.32516 23.1141 9.50089 23.0544 9.63449 22.9358L11.5797 21.2284C11.858 20.9844 11.8858 20.5611 11.6419 20.2828C11.6417 20.2826 11.6415 20.2823 11.6413 20.2821C11.5232 20.1404 11.3522 20.0533 11.1681 20.0409H11.1235C10.9606 20.0409 10.8036 20.1009 10.6824 20.2095L10.5427 20.3293Z" fill="#0074BC"/>
<path d="M23.6721 17.9658L16.8096 12.3739C14.1816 13.7692 12.3207 13.0511 11.431 12.4831C10.9672 12.1805 10.8366 11.5591 11.1392 11.0953C11.2332 10.9512 11.3628 10.8337 11.5153 10.7542L13.8025 9.53934C13.7435 9.53051 13.6857 9.52292 13.6339 9.51782C11.5698 9.84392 9.48529 10.0235 7.39585 10.055L3.39746 16.5582L4.28888 17.2376L5.33676 16.3175C6.0643 15.6788 7.17187 15.7508 7.81056 16.4783C7.81062 16.4784 7.81068 16.4785 7.8108 16.4786L7.82597 16.4959C8.03567 16.7363 8.17513 17.0298 8.22913 17.3443C8.54687 17.1275 8.92821 17.0236 9.31204 17.0492C9.7763 17.0781 10.2097 17.2916 10.5155 17.642L10.5648 17.6985C10.8723 18.0471 11.0276 18.5041 10.9962 18.9678V18.9703C11.0764 18.9621 11.1572 18.9595 11.2378 18.9623C11.7021 18.9913 12.1354 19.2048 12.4413 19.5552L12.1263 19.8571L12.4539 19.5695C12.7618 19.9182 12.9175 20.3756 12.8862 20.8396C12.8862 20.8456 12.8836 20.851 12.8832 20.8569C13.8433 20.7886 14.677 21.5116 14.7454 22.4717C14.751 22.5518 14.7512 22.6322 14.7458 22.7124C14.7242 23.0139 14.6242 23.3047 14.4557 23.5557L16.336 24.6407C16.7482 24.8745 17.2717 24.7358 17.5141 24.3287C17.7441 23.9401 17.632 23.4396 17.2581 23.1863L14.2642 21.1116C14.2617 21.1116 14.2604 21.107 14.2583 21.1053L14.0567 20.9657C13.8611 20.8252 13.8165 20.5528 13.957 20.3572C14.094 20.1664 14.3576 20.1185 14.553 20.2488L18.7758 23.1741C19.1653 23.4441 19.6999 23.3472 19.9699 22.9576C19.9701 22.9574 19.9703 22.9572 19.9704 22.9569C20.2354 22.5696 20.1417 22.0415 19.7596 21.769L15.5575 18.7885C15.555 18.7885 15.5541 18.7839 15.5516 18.7822C15.3553 18.6424 15.3094 18.37 15.4491 18.1737C15.5888 17.9773 15.8613 17.9315 16.0576 18.0712L20.7687 21.4135C21.1807 21.7044 21.7507 21.6063 22.0416 21.1942C22.3233 20.7954 22.2414 20.2455 21.8558 19.946L16.7867 16.2934C16.5863 16.1598 16.5323 15.8891 16.6659 15.6887C16.7996 15.4884 17.0703 15.4344 17.2706 15.568C17.2781 15.573 17.2855 15.5783 17.2927 15.5838L17.6393 15.8309H17.6439L22.3419 19.2158C22.3508 19.2221 22.3571 19.2301 22.3655 19.2364L22.4431 19.2921C22.4579 19.3023 22.472 19.3134 22.4853 19.3254L22.5696 19.3832C22.9623 19.6646 23.5065 19.5893 23.8081 19.212C23.9885 18.9841 24.0468 18.6828 23.9646 18.404C23.9145 18.2313 23.8124 18.0783 23.6721 17.9658Z" fill="#0074BC"/>
<path d="M16.7636 24.9667C16.5772 24.9667 16.3942 24.9177 16.2328 24.8246L14.1568 23.6274L14.2833 23.4418C14.7519 22.7349 14.5586 21.7819 13.8517 21.3132C13.6274 21.1646 13.3681 21.0775 13.0996 21.0606C13.0473 21.058 12.9948 21.0594 12.9427 21.0648L12.6598 21.0825L12.6762 20.8426C12.7027 20.5018 12.6152 20.162 12.4274 19.8765L12.2692 20.0156L11.9841 19.7053L12.1444 19.5518C11.8894 19.3271 11.5669 19.1935 11.2277 19.1723C11.1662 19.1703 11.1046 19.1722 11.0434 19.1782L10.8169 19.1951L10.7887 18.9455V18.9366C10.8108 18.5346 10.6745 18.14 10.4092 17.8372L10.3594 17.7803C9.85173 17.1976 8.98877 17.0861 8.3496 17.5206L8.08099 17.701L8.02451 17.3822C7.88125 16.5394 7.08182 15.9723 6.23895 16.1156C5.95706 16.1635 5.69391 16.2886 5.47876 16.4769L4.30101 17.5108L3.11816 16.6105L7.27641 9.84669L7.38985 9.84331C9.4679 9.8116 11.5412 9.63332 13.5941 9.30988L13.6237 9.30396L13.6536 9.3065C13.7092 9.31154 13.7708 9.32002 13.8345 9.32926L14.467 9.42415L11.6147 10.9388C11.2261 11.1396 11.0739 11.6174 11.2747 12.0059C11.3376 12.1277 11.4311 12.2311 11.546 12.306C12.383 12.8402 14.1693 13.5365 16.7112 12.1875L16.8348 12.1217L23.8052 17.8014C23.9783 17.9419 24.1038 18.1322 24.1649 18.3466C24.2668 18.6904 24.1951 19.0622 23.9727 19.3435C23.6002 19.8089 22.9286 19.9016 22.4441 19.5543L22.2075 19.3776L17.1709 15.7511C17.0702 15.6789 16.9301 15.7019 16.8578 15.8025C16.8576 15.8028 16.8574 15.8031 16.8572 15.8035C16.7848 15.9043 16.8079 16.0448 16.9087 16.1171C16.909 16.1173 16.9092 16.1175 16.9094 16.1177L21.9794 19.7732C22.4709 20.1526 22.5618 20.8586 22.1824 21.3501C21.8153 21.8259 21.1388 21.9286 20.6469 21.5836L15.9345 18.2429C15.8856 18.2083 15.8249 18.1945 15.7658 18.2046C15.6432 18.2253 15.5606 18.3416 15.5814 18.4642C15.5913 18.5231 15.6244 18.5757 15.6731 18.6103L19.8824 21.598C20.3579 21.9378 20.474 22.5957 20.1434 23.0776C19.8077 23.5633 19.1418 23.6849 18.6562 23.3492C18.656 23.349 18.6558 23.3489 18.6557 23.3488L14.4338 20.4231C14.3339 20.349 14.1929 20.3698 14.1187 20.4697C14.0446 20.5696 14.0655 20.7106 14.1653 20.7847C14.1694 20.7878 14.1736 20.7906 14.1778 20.7934L17.3801 23.014C17.8671 23.3474 17.9915 24.0124 17.6581 24.4993C17.5145 24.7091 17.3008 24.8608 17.0554 24.9271C16.9604 24.9533 16.8623 24.9666 16.7636 24.9667ZM14.7472 23.4802L16.4436 24.4593C16.7599 24.6304 17.1549 24.5129 17.3261 24.1966C17.4805 23.9112 17.4012 23.5557 17.1402 23.363L14.7471 21.7023C14.9092 22.018 14.9821 22.3718 14.9579 22.7258C14.9409 22.9892 14.869 23.2461 14.7472 23.4802ZM14.3078 19.9621C14.4389 19.9619 14.5669 20.0018 14.6747 20.0764L18.8966 23.0017C19.1906 23.2049 19.5938 23.1315 19.7973 22.8376C19.9973 22.5456 19.9268 22.1472 19.6388 21.9415L15.4067 18.9366C15.1266 18.7148 15.0794 18.3079 15.3012 18.0279C15.5136 17.7596 15.8982 17.7032 16.1788 17.8992L20.8911 21.2415C21.2093 21.4636 21.6472 21.3857 21.8693 21.0675C22.0825 20.762 22.0202 20.3433 21.7274 20.1131L16.6638 16.4643C16.3732 16.2565 16.3061 15.8526 16.5139 15.5621C16.7216 15.2715 17.1255 15.2044 17.4161 15.4122L17.7678 15.6614L22.5666 19.123C22.5881 19.1386 22.6087 19.1555 22.6281 19.1737L22.6876 19.2125C22.988 19.4301 23.4062 19.3745 23.6393 19.086C23.7778 18.9116 23.8228 18.6807 23.76 18.467C23.7233 18.3346 23.6466 18.2168 23.5402 18.1296L16.7844 12.625C14.1197 13.987 12.2201 13.2373 11.3181 12.6608C10.7558 12.296 10.5957 11.5445 10.9605 10.9822C11.0747 10.8061 11.2327 10.6627 11.4189 10.5659L12.7118 9.87935C11.397 10.0577 9.60185 10.1906 7.51746 10.2588L3.68004 16.5039L4.28347 16.9631L5.20232 16.1568C6.0171 15.4414 7.25768 15.5219 7.97312 16.3367C7.9733 16.3369 7.97348 16.3371 7.97365 16.3373C8.14992 16.5367 8.28447 16.7694 8.36922 17.0217C8.66776 16.8766 8.99908 16.8122 9.33022 16.8349C9.85078 16.8672 10.3367 17.1065 10.6796 17.4995L10.7294 17.5564C11.021 17.8869 11.1918 18.3065 11.2139 18.7468H11.2561C11.7102 18.7765 12.1397 18.964 12.4701 19.2768L12.4768 19.2709L12.5911 19.4017L12.6033 19.4152L12.7362 19.5666L12.7302 19.5725C12.9565 19.8829 13.0858 20.2534 13.1017 20.6373H13.1274C13.3147 20.6495 13.4994 20.6884 13.6756 20.7528C13.5946 20.4056 13.8104 20.0584 14.1576 19.9773C14.2069 19.9658 14.2575 19.9601 14.3082 19.9604L14.3078 19.9621Z" fill="#0074BC"/>
<path d="M27.3915 5.4021L22.9697 8.82706L27.0601 15.48C27.087 15.4939 27.1123 15.5108 27.1356 15.5302C27.2057 15.6025 27.2481 15.6971 27.2554 15.7976L27.8681 16.794L29.759 15.7301L27.3915 5.4021Z" fill="#0074BC"/>
<path d="M27.7927 17.077L27.0484 15.8659L27.0438 15.817C27.0411 15.7654 27.0202 15.7164 26.9848 15.6787L26.9038 15.6306L26.8789 15.5885L22.6895 8.77608L27.5237 5.0332L29.9998 15.8368L27.7927 17.077ZM27.4554 15.725L27.9386 16.5107L29.517 15.6251L27.2597 5.77076L23.2474 8.87773L27.2112 15.3249C27.2373 15.3406 27.2615 15.3592 27.2833 15.3806C27.3758 15.4744 27.4364 15.5949 27.4566 15.7251L27.4554 15.725Z" fill="#0074BC"/>
<path d="M21.8337 10.0083C20.9759 10.3614 20.0202 10.3962 19.1391 10.1062L16.8177 9.3526C16.4969 9.25089 16.1487 9.28124 15.8504 9.43694L15.0635 9.85485C15.0551 9.85906 15.0479 9.86415 15.039 9.86795L11.9211 11.5244C11.8767 11.5456 11.8478 11.5898 11.8461 11.639C11.8426 11.6836 11.8643 11.7263 11.9021 11.7499C12.8193 12.3352 14.3901 12.762 16.6389 11.4716C16.7956 11.3819 16.9913 11.3978 17.1314 11.5117L24.2191 17.2887C24.3178 17.3699 24.407 17.462 24.4848 17.5633L26.2373 15.8095L22.5025 9.73471L21.8337 10.0083Z" fill="#0074BC"/>
<path d="M24.4668 17.8786L24.32 17.6926C24.2522 17.6038 24.1744 17.5232 24.0881 17.4523L16.9987 11.6769C16.9265 11.6191 16.8264 11.6109 16.7457 11.6562C14.4049 13.0005 12.7591 12.5468 11.7905 11.9294C11.6885 11.8652 11.6298 11.7503 11.6374 11.63C11.6425 11.5062 11.7143 11.3948 11.825 11.3391L15.753 9.25302C16.1016 9.07035 16.5088 9.03455 16.884 9.1535L19.2045 9.90581C20.038 10.1804 20.9421 10.1478 21.7536 9.81389L22.5898 9.47149L26.5055 15.8389L24.4668 17.8786ZM16.8549 11.2041C17.0039 11.2038 17.1484 11.2547 17.2643 11.3483L24.3524 17.1254C24.4023 17.1656 24.4498 17.2089 24.4946 17.2548L25.9704 15.779L22.4169 9.99721L21.9142 10.203C21.0099 10.5753 20.0022 10.6117 19.0733 10.3059L16.754 9.55275C16.4869 9.46888 16.1975 9.49466 15.9494 9.62446L12.1403 11.6486C13.0229 12.1613 14.4748 12.4738 16.5355 11.2902C16.6328 11.2342 16.7429 11.2046 16.8549 11.2041Z" fill="#0074BC"/>
</g>
<defs>
<clipPath id="clip0_407_277">
<rect width="30" height="30" fill="white"/>
</clipPath>
</defs>
</svg>
