<svg width="33" height="30" viewBox="0 0 33 30" fill="none" xmlns="http://www.w3.org/2000/svg">
<path d="M7.81296 19.9673H11.1388V30H0.467773V19.9673H3.79368V22.0096C3.79415 22.1625 3.85895 22.309 3.97392 22.417C4.0889 22.5251 4.24471 22.5861 4.40731 22.5865H7.19933C7.36193 22.5861 7.51773 22.5251 7.63271 22.417C7.74768 22.3089 7.81249 22.1625 7.81296 22.0096V19.9673ZM19.7113 22.0096C19.7108 22.1625 19.646 22.3089 19.531 22.417C19.416 22.5251 19.2602 22.5861 19.0976 22.5865H16.3117C16.1491 22.5861 15.9933 22.5251 15.8784 22.417C15.7634 22.3089 15.6986 22.1625 15.6981 22.0096V19.9673H12.3661V30H23.0433V19.9673H19.7113V22.0096ZM10.2307 18.8135H16.8149C16.8845 18.8161 17.0215 18.8116 17.0911 18.8135V8.77496H13.759V10.8173C13.7593 10.8931 13.7436 10.9683 13.7129 11.0384C13.6822 11.1085 13.637 11.1722 13.5799 11.2258C13.5229 11.2795 13.4551 11.3219 13.3806 11.3508C13.306 11.3797 13.2261 11.3945 13.1454 11.3942H10.3595C10.2788 11.3945 10.1989 11.3797 10.1243 11.3508C10.0498 11.3219 9.98201 11.2795 9.92498 11.2258C9.86794 11.1722 9.82275 11.1085 9.79201 11.0384C9.76127 10.9683 9.74559 10.8931 9.74587 10.8173V8.77496H6.41386V18.8135H10.1141C10.1527 18.8077 10.192 18.8077 10.2307 18.8135ZM10.9731 8.77498V10.2404H12.5318V8.77496L10.9731 8.77498ZM16.9254 21.4327H18.484V19.9673H16.9254V21.4327ZM6.5857 19.9673H5.02096V21.4327H6.5857V19.9673ZM16.5817 18.8827C16.5983 18.8717 16.6374 18.8587 16.6554 18.8481C16.6277 18.8525 16.6021 18.8646 16.5817 18.8827ZM27.5964 14.4C27.6394 14.2886 27.7179 14.1923 27.821 14.1242C27.9242 14.0561 28.0472 14.0194 28.1732 14.0192H32.4012V9.10381H28.1732C28.0341 9.10235 27.8994 9.05731 27.7905 8.97581C27.6815 8.89432 27.6046 8.78102 27.5719 8.65383C27.5059 8.53847 27.4793 8.40678 27.4957 8.2767C27.5122 8.14661 27.5709 8.02447 27.6639 7.9269L30.6523 5.12306L26.9583 1.64997L23.9699 4.45383C23.8844 4.5332 23.7763 4.58747 23.6586 4.61001C23.5409 4.63255 23.4188 4.62239 23.3071 4.58078C23.1497 4.5591 23.0051 4.48696 22.8978 4.37658C22.7904 4.26619 22.727 4.12433 22.7181 3.975V0H17.4899V3.97501C17.4723 4.10247 17.419 4.22326 17.3356 4.32511C17.2523 4.42696 17.1417 4.50624 17.0151 4.55488C16.8886 4.60353 16.7506 4.6198 16.6152 4.60206C16.4798 4.58431 16.3518 4.53317 16.2442 4.45385L13.2559 1.64997L9.56793 5.12306L12.225 7.62112C13.42 7.62684 16.134 7.61699 17.2936 7.62112C18.1249 7.09207 19.1063 6.81062 20.1101 6.81344C20.8504 6.81328 21.5817 6.96617 22.2522 7.2613C22.9226 7.55642 23.5158 7.98655 23.9898 8.52121C24.4638 9.05588 24.8069 9.68199 24.9948 10.3552C25.1828 11.0284 25.211 11.7322 25.0774 12.4168C24.9439 13.1014 24.6518 13.75 24.222 14.3167C23.7921 14.8834 23.235 15.3542 22.5901 15.6959C21.9451 16.0377 21.2281 16.2418 20.4899 16.294C19.7517 16.3462 19.0103 16.2452 18.3183 15.998C18.3154 16.6854 18.3204 18.1198 18.3183 18.8135H22.8346C22.8985 18.7333 22.9786 18.6658 23.0703 18.6148C23.162 18.5638 23.2636 18.5304 23.3691 18.5165C23.4746 18.5025 23.582 18.5083 23.6851 18.5336C23.7882 18.5588 23.885 18.6029 23.9699 18.6634L26.9583 21.4731L30.6523 17.9942L27.6639 15.1961C27.5603 15.0892 27.4975 14.953 27.4853 14.8089C27.4731 14.6648 27.5122 14.5209 27.5964 14.4Z" fill="#0074BC"/>
</svg>
