<svg height="512" viewBox="0 0 96 96" width="512" xmlns="http://www.w3.org/2000/svg"><path d="M95.983 32H0v4a8 8 0 008 8h12a8 8 0 008-8 8 8 0 008 8h24a8 8 0 008-8 8 8 0 008 8h12a8 8 0 008-8v-4zm-.966-4L87.846 2.9A4 4 0 0084 0H65.679l5.6 28zM30.321 0H12a4 4 0 00-3.846 2.9L.983 28h23.738zm27.2 0H38.479l-5.6 28h30.242zM76 48a11.953 11.953 0 01-8-3.063A11.953 11.953 0 0160 48H36a11.953 11.953 0 01-8-3.063A11.953 11.953 0 0120 48H8a11.922 11.922 0 01-4-.7V92a4 4 0 004 4h8V60a4 4 0 014-4h20a4 4 0 014 4v36h44a4 4 0 004-4V47.3a11.922 11.922 0 01-4 .7zm4 24a4 4 0 01-4 4H56a4 4 0 01-4-4V60a4 4 0 014-4h20a4 4 0 014 4z" data-name="02-shop"/></svg>